<svg xmlns="http://www.w3.org/2000/svg" viewBox="0 0 500 500"><g id="freepik--Floor--inject-18"><ellipse id="freepik--floor--inject-18" cx="249.99" cy="344.26" rx="239.66" ry="138.37" style="fill:#f5f5f5"></ellipse></g><g id="freepik--Shadows--inject-18"><path id="freepik--Shadow--inject-18" d="M471.17,370.75,326.48,454.29a13.2,13.2,0,0,1-11.93,0L42.08,297c-3.29-1.9-3.29-5,0-6.89l144.69-83.54a13.2,13.2,0,0,1,11.93,0L471.17,363.87C474.46,365.77,474.46,368.85,471.17,370.75Z" style="fill:#e0e0e0"></path><path id="freepik--shadow--inject-18" d="M171,390.61c-8.56,4.12-17.67,6.59-26.14,10.95A103,103,0,0,0,121.58,418a33.41,33.41,0,0,0-7.24,8.88,13,13,0,0,0,6.1,18.82,32,32,0,0,0,10.44,2.76,4.77,4.77,0,0,1,1.83.48,5.09,5.09,0,0,1,1.42,1.5c11.5,15.4,34,9.37,48.3,2,10-5.17,20.72-11.32,29.48-18.29,10-7.91,15.16-15,17.77-19.64a37.4,37.4,0,0,0,4.06-11.73c.88-5.25-3.15-10.29-7-13.95a16.43,16.43,0,0,0-12.65-4.38c-4.65.53-9.35-.09-14.06.63s-9.21.21-13.85.83A50.32,50.32,0,0,0,171,390.61Z" style="fill:#e0e0e0"></path></g><g id="freepik--Plants--inject-18"><g id="freepik--plants--inject-18"><path d="M441.3,341.6l-7.89-5.33s-3.48-20.68-.25-38.85c4.54-25.55,22.16-34.05,28.45-31.38s7.63,10.29-4.1,24.87C450.59,299.52,441.55,317.81,441.3,341.6Z" style="fill:#BA68C8"></path><g style="opacity:0.15"><path d="M441.3,341.6l-7.89-5.33s-3.48-20.68-.25-38.85c4.54-25.55,22.16-34.05,28.45-31.38s7.63,10.29-4.1,24.87C450.59,299.52,441.55,317.81,441.3,341.6Z"></path></g><path d="M438.59,331.37h.08a.56.56,0,0,0,.5-.63c-2.85-24.06,7.31-50.15,18.35-60.53a.57.57,0,0,0-.78-.84c-11.25,10.57-21.6,37.09-18.7,61.5A.57.57,0,0,0,438.59,331.37Z" style="fill:#fff"></path><path d="M462,355.55c1.26.75,4.92-2,5.93-2.62a12.08,12.08,0,0,0,4.12-4.54,11.36,11.36,0,0,0,1.13-6.79,26.7,26.7,0,0,0-.79-3.63c-.31-1.18-.63-2.36-.94-3.54a9,9,0,0,1-.45-3.55c.36-2.4,2.52-4,4.49-5.45,2.18-1.57,4.45-3.65,4.49-6.54a10.16,10.16,0,0,0-2.43-6.11c-2.15-2.83-4.34-5.06-3.73-8.92a31.16,31.16,0,0,1,2.37-6.73,11.09,11.09,0,0,0,.84-2.92,6.27,6.27,0,0,0-6.62-6.89,11.47,11.47,0,0,0-4.66,1.54c-4.48,2.38-7.2,8.58-12.4,9.23-1.69.21-3.41.13-5.1.35a7.51,7.51,0,0,0-4.58,2c-4,4.24.64,9.79-1,14.46-1.18,3.34-4.47,4.56-6.36,7.55a7.22,7.22,0,0,0-.94,4.38,21.06,21.06,0,0,0,1.71,7.46,67.36,67.36,0,0,0,3.92,7.06Z" style="fill:#BA68C8"></path><path d="M449.85,348.11h0a.57.57,0,0,0,.56-.59c-.5-22.72,10.68-47.58,18.6-54.71a.58.58,0,0,0,0-.81.57.57,0,0,0-.81-.05c-8.08,7.28-19.48,32.55-19,55.6A.58.58,0,0,0,449.85,348.11Z" style="fill:#fff"></path><path d="M454,320.42a.52.52,0,0,0,.17,0,76.94,76.94,0,0,1,16.52-2.34.56.56,0,0,0,.56-.58.55.55,0,0,0-.58-.56,78.28,78.28,0,0,0-16.82,2.38.58.58,0,0,0-.39.71A.56.56,0,0,0,454,320.42Z" style="fill:#fff"></path></g><g id="freepik--plants--inject-18"><path d="M60.33,285.25l9.14-4.11s4-18.28,4-32.75c.06-20.33-10.49-45.86-26.57-41.74s4.46,26.91,7.77,44.49S60.33,285.25,60.33,285.25Z" style="fill:#BA68C8"></path><path d="M60.33,285.25l9.14-4.11s4-18.28,4-32.75c.06-20.33-10.49-45.86-26.57-41.74s4.46,26.91,7.77,44.49S60.33,285.25,60.33,285.25Z" style="opacity:0.15"></path><path d="M65.08,283.61h0a.54.54,0,0,1-.45-.59c6-44.57-14-69.32-14.15-69.56a.53.53,0,1,1,.81-.67c.2.24,20.48,25.35,14.39,70.37A.53.53,0,0,1,65.08,283.61Z" style="fill:#fff"></path><path d="M54.58,287.81l6.51-2.92s2.33-12.59-2.34-28.64c-4.06-14-16.37-26.46-23.37-24.81s-7.31,6.47-4.53,11.83S52.48,262.65,54.58,287.81Z" style="fill:#BA68C8"></path><path d="M58,286.79h0a.53.53,0,0,1-.47-.58c3-28.26-21.64-50.06-21.89-50.27a.53.53,0,0,1,.69-.8c.26.22,25.28,22.38,22.25,51.18A.53.53,0,0,1,58,286.79Z" style="fill:#fff"></path></g></g><g id="freepik--Device--inject-18"><g id="freepik--device--inject-18"><path d="M460,341.93c2,1.57,1.81,3.8-.66,5.22L324.65,424.94a10.88,10.88,0,0,1-9.8,0L57.38,276.28c-2.49-1.44-2.69-3.71-.57-5.27a10.89,10.89,0,0,0-4.33,8.11v6.47a10.82,10.82,0,0,0,4.9,8.5L314.83,442.73a10.78,10.78,0,0,0,9.8,0L459.36,365a10.81,10.81,0,0,0,4.9-8.49V350A11,11,0,0,0,460,341.93Z" style="fill:#37474f"></path><path d="M459.36,341.49,201.9,192.85a10.88,10.88,0,0,0-9.8,0L57.38,270.63c-2.71,1.55-2.7,4.09,0,5.65L314.85,424.93a10.88,10.88,0,0,0,9.8,0l134.71-77.79C462.07,345.59,462.07,343.05,459.36,341.49Zm-34.92-12c2.31,1.34,2.32,3.51,0,4.85L301.94,405.05a9.3,9.3,0,0,1-8.41,0L93.08,289.31c-2.33-1.34-2.32-3.52,0-4.85l122.5-70.73c2.32-1.34,4.73-2.11,7.05-.78Z" style="fill:#455a64"></path><path d="M56.81,271a10.89,10.89,0,0,0-4.33,8.11v6.47a10.85,10.85,0,0,0,4.9,8.5L314.83,442.73a10,10,0,0,0,4.91,1.17V426.1a10.09,10.09,0,0,1-4.9-1.17L57.38,276.28C54.89,274.84,54.69,272.57,56.81,271Z" style="fill:#263238"></path><path d="M379.28,384.1a16.5,16.5,0,0,1-8.06-1.92c-2.27-1.31-3.52-3.09-3.52-5s1.25-3.71,3.52-5c4.44-2.57,11.67-2.57,16.11,0,2.28,1.31,3.53,3.09,3.53,5s-1.25,3.71-3.53,5h0A16.49,16.49,0,0,1,379.28,384.1Zm0-12.62a15.19,15.19,0,0,0-7.42,1.77c-1.86,1.07-2.88,2.46-2.88,3.91s1,2.83,2.88,3.91a16.42,16.42,0,0,0,14.83,0h0c1.86-1.08,2.88-2.46,2.88-3.91s-1-2.84-2.88-3.91A15.15,15.15,0,0,0,379.28,371.48Z" style="fill:#e6e6e6"></path><path d="M137.66,239.37c1.82-1,1.82-2.74,0-3.79a7.25,7.25,0,0,0-6.57,0c-1.81,1-1.81,2.75,0,3.79A7.25,7.25,0,0,0,137.66,239.37Z"></path><path d="M134.42,252l25.36-14.65c1.51-.87,1.59-2.24.17-3.06a5.85,5.85,0,0,0-5.31.1L129.28,249c-1.51.87-1.59,2.24-.17,3.06A5.88,5.88,0,0,0,134.42,252Z"></path><path d="M222.62,213c-2.32-1.33-4.73-.56-7.05.78L93.07,284.46c-2.31,1.33-2.32,3.51,0,4.85L293.53,405a9.3,9.3,0,0,0,8.41,0l122.49-70.73c2.33-1.34,2.32-3.51,0-4.85Z" style="fill:#BA68C8"></path><path d="M222.62,213c-2.32-1.33-4.73-.56-7.05.78L93.07,284.46c-2.31,1.33-2.32,3.51,0,4.85L293.53,405a9.3,9.3,0,0,0,8.41,0l122.49-70.73c2.33-1.34,2.32-3.51,0-4.85Z" style="fill:#fff;opacity:0.8"></path></g><g id="freepik--Video--inject-18"><path d="M426.17,278a3,3,0,0,0-1.73-2.43L222.62,159c-2.32-1.33-4.73-.56-7.05.79L93.07,230.51a3,3,0,0,0-1.73,2.41c0,.88,0,8.51,0,9.39a2.94,2.94,0,0,0,1.74,2.44L293.53,360.48a9.33,9.33,0,0,0,8.41,0l122.49-70.73a3,3,0,0,0,1.74-2.42Z" style="fill:#BA68C8;opacity:0.8"></path><path d="M426.18,278v9.38a3,3,0,0,1-1.75,2.42L302,360.48a8.62,8.62,0,0,1-4.21,1V352.1a8.62,8.62,0,0,0,4.21-1l122.48-70.73a2.83,2.83,0,0,0,1.73-2.6A1.1,1.1,0,0,1,426.18,278Z" style="opacity:0.30000000000000004"></path><path d="M426.16,277.75l0-.15s0-.08,0-.12A1.28,1.28,0,0,1,426.16,277.75Z" style="fill:#BA68C8"></path><path d="M297.74,352.1v9.38a8.58,8.58,0,0,1-4.2-1L93.08,244.75a3,3,0,0,1-1.74-2.44c0-.87,0-8.4,0-9.37a3,3,0,0,0,1.74,2.42L293.54,351.1A8.58,8.58,0,0,0,297.74,352.1Z" style="opacity:0.2"></path><path d="M220.05,159.31a4,4,0,0,1,2.07.56L423.94,276.39c.78.45,1.23,1,1.23,1.56s-.45,1.1-1.24,1.55L301.45,350.23a7.77,7.77,0,0,1-3.72.87,7.69,7.69,0,0,1-3.7-.87L93.58,234.5c-.79-.46-1.24-1-1.24-1.56s.45-1.11,1.23-1.56l122.5-70.73a8.18,8.18,0,0,1,4-1.34m0-1a9.13,9.13,0,0,0-4.48,1.48L93.07,230.51c-2.31,1.34-2.32,3.51,0,4.85L293.53,351.1a9.34,9.34,0,0,0,8.41,0l122.49-70.73c2.33-1.34,2.32-3.51,0-4.85L222.62,159a5.15,5.15,0,0,0-2.57-.69Z" style="fill:#fafafa"></path><path d="M224.89,252.83l36,20.8a5.16,5.16,0,0,0,6.94-1.76L287,240.53c1.44-2.36.42-3.82-2.29-3.27l-59.25,12.08C222.75,249.89,222.49,251.45,224.89,252.83Z" style="fill:#fff"></path></g></g><g id="freepik--speach-bubble--inject-18"><g id="freepik--speach-bubble--inject-18"><g id="freepik--speach-bubble--inject-18"><path d="M250.08,177.61,237.3,185l5.29,19.29a.92.92,0,0,0,.35.4l10.64,6.18a.92.92,0,0,0,1.32-.53l5.79-26.56Z" style="fill:#BA68C8"></path><path d="M260.69,183.77l-5.79,26.56a.91.91,0,0,1-1.7.11l-5.29-19.29Z" style="fill:#BA68C8"></path><path d="M260.69,183.77l-5.79,26.56a.91.91,0,0,1-1.7.11l-5.29-19.29Z" style="opacity:0.4"></path><path d="M237.3,185l10.62,6.15,5.28,19.3a1,1,0,0,0,.27.35c-1-.57-10.09-5.84-10.53-6.11a.87.87,0,0,1-.35-.4Z" style="fill:#BA68C8"></path><path d="M237.3,185l10.62,6.15,5.28,19.3a1,1,0,0,0,.27.35c-1-.57-10.09-5.84-10.53-6.11a.87.87,0,0,1-.35-.4Z" style="opacity:0.5"></path><path d="M287,46.05,204.69,93.57a3.28,3.28,0,0,0-1.48,2.57V205.88a3.23,3.23,0,0,0,1.49,2.55l5.3,3a3.32,3.32,0,0,0,3,0l82.34-47.53a3.25,3.25,0,0,0,1.48-2.56V51.56A3.24,3.24,0,0,0,295.31,49L290,46A3.31,3.31,0,0,0,287,46.05Z" style="fill:#BA68C8"></path><path d="M211.49,210.61V100.79A3.27,3.27,0,0,1,213,98.23l82.35-47.52c.82-.48,1.48-.09,1.48.85V161.37a3.25,3.25,0,0,1-1.48,2.56L213,211.46C212.16,211.94,211.49,211.55,211.49,210.61Z" style="fill:#BA68C8"></path><path d="M211.49,210.61V100.79A3.27,3.27,0,0,1,213,98.23l82.35-47.52c.82-.48,1.48-.09,1.48.85V161.37a3.25,3.25,0,0,1-1.48,2.56L213,211.46C212.16,211.94,211.49,211.55,211.49,210.61Z" style="opacity:0.4"></path><path d="M213,211.48a3.37,3.37,0,0,1-2.94,0l-5.3-3.06a3.21,3.21,0,0,1-1.49-2.54V96.14a3,3,0,0,1,.47-1.51l8.24,4.7a3,3,0,0,0-.44,1.46V210.61A.92.92,0,0,0,213,211.48Z" style="opacity:0.5"></path><path d="M296.77,51.29c-.11-.74-.72-1-1.46-.59L213,98.23a3,3,0,0,0-1.05,1.1l-8.25-4.7a3,3,0,0,1,1-1.06L287,46.05a3.3,3.3,0,0,1,3,0l5.29,3A3.23,3.23,0,0,1,296.77,51.29Z" style="opacity:0.2"></path></g><ellipse cx="254.15" cy="90" rx="6.56" ry="3.91" transform="translate(60.04 277.11) rotate(-63.45)" style="fill:#fff;opacity:0.30000000000000004"></ellipse><path d="M243.51,98.1c1.48,1.72,1,5.48-1,8.39s-4.89,3.88-6.38,2.16-1-5.48,1-8.39S242,96.38,243.51,98.1Z" style="fill:#fff;opacity:0.5"></path><path d="M232.37,117c2.4-.32,3.71,2.15,2.93,5.52s-3.35,6.35-5.75,6.67-3.71-2.15-2.93-5.52S230,117.32,232.37,117Z" style="fill:#fff;opacity:0.6000000000000001"></path><path d="M229.55,137.06c2.4-2.24,5-2,5.75.54s-.53,6.41-2.93,8.65-5,2-5.75-.54S227.15,139.3,229.55,137.06Z" style="fill:#fff;opacity:0.7000000000000001"></path><ellipse cx="239.82" cy="151.94" rx="6.56" ry="3.91" transform="translate(-3.3 298.55) rotate(-63.45)" style="fill:#fff;opacity:0.75"></ellipse><ellipse cx="254.15" cy="150.04" rx="6.56" ry="3.91" transform="translate(6.33 310.31) rotate(-63.45)" style="fill:#fff;opacity:0.8"></ellipse><path d="M264.78,141.94c-1.48-1.72-1-5.48,1-8.39s4.9-3.88,6.38-2.16,1,5.48-1,8.39S266.26,143.66,264.78,141.94Z" style="fill:#fff;opacity:0.85"></path><path d="M275.92,123c-2.4.32-3.71-2.15-2.93-5.52s3.35-6.36,5.75-6.68,3.71,2.16,2.93,5.52S278.32,122.71,275.92,123Z" style="fill:#fff;opacity:0.9"></path><path d="M278.74,103c-2.4,2.24-5,2-5.75-.54s.53-6.41,2.93-8.64,5-2,5.75.54S281.14,100.74,278.74,103Z" style="fill:#fff"></path><path d="M272.17,89.43c-1.48,3.3-4.34,5.38-6.38,4.64s-2.49-4-1-7.31,4.34-5.38,6.38-4.65S273.65,86.13,272.17,89.43Z" style="fill:#fff;opacity:0.15"></path><path d="M246.26,132.38a.16.16,0,0,1-.24,0,.53.53,0,0,1-.1-.36v-2.62L242,131.63a.16.16,0,0,1-.24,0,.58.58,0,0,1-.1-.35V129.7a1.79,1.79,0,0,1,.09-.57c0-.19.11-.39.19-.61L245.8,118a1.6,1.6,0,0,1,.52-.84l1-.56a.17.17,0,0,1,.24,0,.49.49,0,0,1,.1.35v8.68l1.09-.63a.17.17,0,0,1,.24,0,.49.49,0,0,1,.1.35V127a1.1,1.1,0,0,1-.1.47.64.64,0,0,1-.24.32l-1.09.62V131a1.14,1.14,0,0,1-.1.47.56.56,0,0,1-.24.31Zm-.34-5.72V122l-2.17,5.9Z" style="fill:#fafafa"></path><path d="M251.34,114.84a1.19,1.19,0,0,1,.11-.47.56.56,0,0,1,.24-.31l4.75-2.75a.17.17,0,0,1,.24,0,.5.5,0,0,1,.1.35v1.54a1.1,1.1,0,0,1-.1.47.59.59,0,0,1-.24.32l-3.55,2-.14,2.86a3.35,3.35,0,0,1,.68-.68l.55-.36a3,3,0,0,1,1.31-.43,1.41,1.41,0,0,1,1,.36A2.5,2.5,0,0,1,257,119a6.59,6.59,0,0,1,.25,2,11.57,11.57,0,0,1-.26,2.53,8.8,8.8,0,0,1-.71,2,6.58,6.58,0,0,1-1,1.55,5.78,5.78,0,0,1-1.29,1,3.31,3.31,0,0,1-1.5.52,1.45,1.45,0,0,1-1-.34,2.26,2.26,0,0,1-.62-1,5.46,5.46,0,0,1-.24-1.48,1.12,1.12,0,0,1,.1-.48.67.67,0,0,1,.25-.31l1-.59a.19.19,0,0,1,.23,0,.53.53,0,0,1,.14.3,1.62,1.62,0,0,0,.24.68.73.73,0,0,0,.38.28.81.81,0,0,0,.48,0,3.44,3.44,0,0,0,.56-.26,3,3,0,0,0,1.16-1.34,4.9,4.9,0,0,0,.44-2.1,1.79,1.79,0,0,0-.44-1.37.94.94,0,0,0-1.16,0,2.92,2.92,0,0,0-.61.45,4.37,4.37,0,0,0-.36.44l-.25.37a.84.84,0,0,1-.29.27l-1.16.67a.17.17,0,0,1-.24,0,.49.49,0,0,1-.11-.35Z" style="fill:#fafafa"></path><path d="M260.86,108.66a1.33,1.33,0,0,1,.81-.23.91.91,0,0,1,.57.28,1.59,1.59,0,0,1,.36.67,3.68,3.68,0,0,1,.14.9c0,.37,0,.76,0,1.19s0,.83,0,1.22a5.93,5.93,0,0,1-.14,1.07,5,5,0,0,1-.36,1.07,3.87,3.87,0,0,1-.57.94,2.84,2.84,0,0,1-.81.7,1.42,1.42,0,0,1-.81.24.87.87,0,0,1-.58-.28,1.59,1.59,0,0,1-.35-.66,4.23,4.23,0,0,1-.15-.9c0-.37,0-.77,0-1.19s0-.84,0-1.22a7,7,0,0,1,.15-1.07,5.68,5.68,0,0,1,.35-1.08,4.83,4.83,0,0,1,.58-1A2.84,2.84,0,0,1,260.86,108.66Zm5.07-2.41a2.75,2.75,0,0,1,.18-.41.81.81,0,0,1,.28-.27l.76-.43a.17.17,0,0,1,.22,0,.33.33,0,0,1,.08.26.57.57,0,0,1,0,.12.83.83,0,0,1,0,.15l-6.25,17.71a2.75,2.75,0,0,1-.18.41.81.81,0,0,1-.28.27l-.76.44a.2.2,0,0,1-.22,0,.38.38,0,0,1-.08-.27.57.57,0,0,1,0-.12.83.83,0,0,1,0-.15Zm-4.4,6.92c0-.09,0-.23,0-.42v-1.17c0-.19,0-.32,0-.4a1.37,1.37,0,0,0-.17-.65c-.09-.14-.26-.15-.5,0a1.11,1.11,0,0,0-.51.6,2.78,2.78,0,0,0-.16.83,3.87,3.87,0,0,0,0,.42c0,.2,0,.39,0,.59s0,.4,0,.59a3.45,3.45,0,0,0,0,.4,1.33,1.33,0,0,0,.16.64c.1.15.26.15.51,0a1.11,1.11,0,0,0,.5-.59A2.85,2.85,0,0,0,261.53,113.17Zm4.81-.06a1.33,1.33,0,0,1,.81-.23.9.9,0,0,1,.57.29,1.49,1.49,0,0,1,.36.66,4.24,4.24,0,0,1,.14.9c0,.37,0,.77,0,1.19s0,.84,0,1.22a7,7,0,0,1-.14,1.07,5.08,5.08,0,0,1-.36,1.08,4.71,4.71,0,0,1-.57.94,3,3,0,0,1-.81.69,1.46,1.46,0,0,1-.81.24.9.9,0,0,1-.58-.27,1.58,1.58,0,0,1-.35-.67,4.23,4.23,0,0,1-.15-.9c0-.37,0-.76,0-1.19s0-.83,0-1.22a7,7,0,0,1,.15-1.07,5,5,0,0,1,.35-1.07,4.55,4.55,0,0,1,.58-1A2.63,2.63,0,0,1,266.34,113.11Zm.67,4.52c0-.1,0-.23,0-.42V116c0-.19,0-.33,0-.41a1.44,1.44,0,0,0-.17-.64c-.09-.15-.26-.16-.5,0a1.09,1.09,0,0,0-.51.59,2.84,2.84,0,0,0-.16.83,4.26,4.26,0,0,0,0,.43c0,.19,0,.39,0,.59s0,.39,0,.58a3.31,3.31,0,0,0,0,.4,1.33,1.33,0,0,0,.16.64c.09.15.26.16.51,0a1.07,1.07,0,0,0,.5-.59A3.14,3.14,0,0,0,267,117.63Z" style="fill:#fafafa"></path><path d="M236.17,184.65a.14.14,0,0,1,.19,0,.38.38,0,0,1,.08.28v1.81a.8.8,0,0,1-.08.37.46.46,0,0,1-.19.25l-4.62,2.66a.13.13,0,0,1-.19,0,.44.44,0,0,1-.08-.28V178.69a1,1,0,0,1,.08-.37.54.54,0,0,1,.19-.24l1.31-.76a.14.14,0,0,1,.19,0,.43.43,0,0,1,.08.28v8.78Z" style="fill:#fafafa"></path><path d="M237.47,179.13a10.83,10.83,0,0,1,.24-1.95,9.49,9.49,0,0,1,.61-1.82,7.34,7.34,0,0,1,1-1.55,4.93,4.93,0,0,1,1.3-1.12,2.4,2.4,0,0,1,1.3-.38,1.44,1.44,0,0,1,1,.44,2.5,2.5,0,0,1,.61,1.12,7.25,7.25,0,0,1,.25,1.66c0,.49,0,1,0,1.53s0,1,0,1.52a11.58,11.58,0,0,1-.25,1.94,8.64,8.64,0,0,1-.61,1.84,6.67,6.67,0,0,1-1,1.54,4.71,4.71,0,0,1-1.3,1.11,2.26,2.26,0,0,1-1.3.39,1.4,1.4,0,0,1-1-.43,2.89,2.89,0,0,1-.61-1.13,6.85,6.85,0,0,1-.24-1.67c0-.46,0-1,0-1.49S237.46,179.63,237.47,179.13Zm4.38.43c0-.21,0-.44,0-.7s0-.51,0-.77,0-.52,0-.76,0-.46,0-.65a3,3,0,0,0-.11-.72,1.07,1.07,0,0,0-.24-.49.57.57,0,0,0-.38-.2,1,1,0,0,0-.54.16,2,2,0,0,0-.54.47,2.71,2.71,0,0,0-.38.64,4.23,4.23,0,0,0-.24.76,4.6,4.6,0,0,0-.1.85c0,.2,0,.42,0,.67v1.53c0,.25,0,.47,0,.67a2.11,2.11,0,0,0,.34,1.22c.2.26.51.27.92,0a2.08,2.08,0,0,0,.92-1.09A4.92,4.92,0,0,0,241.85,179.56Z" style="fill:#fafafa"></path><path d="M248.88,168.07c.14-.08.24-.07.31,0a.69.69,0,0,1,.14.3l2.18,9.52a1.59,1.59,0,0,1,0,.23.67.67,0,0,1-.07.31.41.41,0,0,1-.15.2l-1.26.72c-.13.08-.23.09-.28,0a.46.46,0,0,1-.11-.22l-.28-1.26-2.65,1.53-.28,1.59a1.2,1.2,0,0,1-.11.34.64.64,0,0,1-.28.31l-1.26.72a.1.1,0,0,1-.15,0,.3.3,0,0,1-.07-.23s0-.15,0-.28l2.18-12a1.84,1.84,0,0,1,.14-.46.72.72,0,0,1,.31-.37Zm-1.61,8.41,1.61-.93-.8-3.64Z" style="fill:#fafafa"></path><path d="M255.77,164.1a2.38,2.38,0,0,1,1.25-.38,1.53,1.53,0,0,1,1,.42,2.7,2.7,0,0,1,.65,1.14,6.82,6.82,0,0,1,.26,1.77c0,.24,0,.45,0,.65v1.14c0,.19,0,.41,0,.64a10.86,10.86,0,0,1-.26,2.08,9.23,9.23,0,0,1-.63,1.88,6.76,6.76,0,0,1-1,1.53,4.66,4.66,0,0,1-1.24,1.08l-2.7,1.55a.14.14,0,0,1-.19,0,.43.43,0,0,1-.08-.28v-11a1,1,0,0,1,.08-.37.65.65,0,0,1,.19-.25Zm1.31,4c0-1.29-.5-1.69-1.36-1.19l-1,.59V174l1.07-.61a3,3,0,0,0,1.31-2.73v-2.56Z" style="fill:#fafafa"></path><path d="M260.84,173.15a.14.14,0,0,1-.19,0,.38.38,0,0,1-.08-.28V161.79a.8.8,0,0,1,.08-.37.43.43,0,0,1,.19-.25l1.3-.75a.13.13,0,0,1,.19,0,.39.39,0,0,1,.08.28v11.06a.85.85,0,0,1-.08.37.44.44,0,0,1-.19.24Z" style="fill:#fafafa"></path><path d="M268.85,168.52c-.12.07-.21.07-.28,0a.54.54,0,0,1-.13-.17l-2.29-4.53v5.79a.85.85,0,0,1-.08.37.44.44,0,0,1-.19.24l-1.3.76a.14.14,0,0,1-.19,0,.38.38,0,0,1-.08-.28V159.63a.8.8,0,0,1,.08-.37.46.46,0,0,1,.19-.25l1-.6c.12-.06.21-.06.28,0a.43.43,0,0,1,.13.16l2.29,4.53v-5.78a.8.8,0,0,1,.08-.37.46.46,0,0,1,.19-.25l1.3-.75a.13.13,0,0,1,.19,0,.39.39,0,0,1,.08.28v11.06a.83.83,0,0,1-.08.37.44.44,0,0,1-.19.24Z" style="fill:#fafafa"></path><path d="M274.91,155.61a2.06,2.06,0,0,0-.57.49,3.21,3.21,0,0,0-.37.65,3.16,3.16,0,0,0-.21.76,7.46,7.46,0,0,0-.1.81,5.29,5.29,0,0,0,0,.63v.82c0,.28,0,.55,0,.81s0,.47,0,.61a3.61,3.61,0,0,0,.09.7,1.33,1.33,0,0,0,.22.51.54.54,0,0,0,.38.22.91.91,0,0,0,.56-.17,2,2,0,0,0,.49-.38,2.35,2.35,0,0,0,.4-.56,3.47,3.47,0,0,0,.27-.73,3.84,3.84,0,0,0,.1-.93l-.84.48a.14.14,0,0,1-.19,0,.43.43,0,0,1-.08-.28v-1.81a1,1,0,0,1,.08-.37.58.58,0,0,1,.19-.25l2.42-1.39a.14.14,0,0,1,.19,0,.41.41,0,0,1,.08.27v2.19a9,9,0,0,1-.24,2.11,8.5,8.5,0,0,1-.66,1.86,7.07,7.07,0,0,1-1,1.5,4.89,4.89,0,0,1-1.23,1,2.22,2.22,0,0,1-1.28.37,1.44,1.44,0,0,1-1-.44,2.71,2.71,0,0,1-.62-1.13,6.67,6.67,0,0,1-.24-1.64c0-.46,0-1,0-1.5s0-1,0-1.55a9.26,9.26,0,0,1,.24-1.93,9.59,9.59,0,0,1,.61-1.83,7.72,7.72,0,0,1,1-1.56,4.78,4.78,0,0,1,1.28-1.11,2.32,2.32,0,0,1,1.26-.37,1.61,1.61,0,0,1,.95.34,2.16,2.16,0,0,1,.61.83,3.27,3.27,0,0,1,.24,1.08.8.8,0,0,1-.06.3.46.46,0,0,1-.16.21l-1.33.76c-.1.06-.18,0-.23,0a1.73,1.73,0,0,1-.17-.21.92.92,0,0,0-.38-.35C275.48,155.37,275.24,155.42,274.91,155.61Z" style="fill:#fafafa"></path></g></g><g id="freepik--Character--inject-18"><g id="freepik--character--inject-18"><path d="M184.39,445.21c-6.25,2.93-23.36-2.56-36.46-9.38s-23.1-16.79-20-30.3c0,0,10.45-8,27.26-2.53S199.68,436.15,184.39,445.21Z" style="fill:#263238"></path><path d="M220,403.33c0,.11,0,.22,0,.34,0,.4-.11.8-.17,1.21s-.09.57-.15.85a35,35,0,0,1-1.7,6.19c-.09.26-.2.52-.3.77-.26.65-.53,1.28-.83,1.92l-.46.94c-.35.69-.73,1.39-1.12,2.06-.14.23-.27.46-.41.68l-.36.57-.51.78-.39.55c-.16.24-.34.48-.52.72s-.38.52-.58.77a34.08,34.08,0,0,1-2.88,3.26c-.25.26-.51.51-.77.75s-.48.46-.73.68c-.82.74-1.68,1.45-2.58,2.12l-5.21,3.89c-3.9,2.91-7.25,5.32-10.73,7.56l-1.76,1.12-.89.55-1.83,1.09-1.91,1.08c-.65.36-1.31.73-2,1.09-2,1.09-4.27,2.22-6.74,3.39-17.47,8.34-37.37,6-36.88-6.19-12.52,3.17-30.05-3.54-25-16.3,10.58-24.12,42.25-37.66,51.06-47.84l50.56,2.6C218.58,388.72,220.39,396.37,220,403.33Z" style="fill:#b16668"></path><path d="M137.59,442.07c1.32-11.44,10-17.09,17.49-22.63s23.19-15.16,23.19-15.16-7.81,1.82-15-5.54a10.89,10.89,0,0,0,5,7.74s-21.74,12.44-28.25,23A17.65,17.65,0,0,0,137.59,442.07Z" style="opacity:0.22"></path><path d="M214.24,380.53a39.25,39.25,0,0,1,7.56,20.57c.71,12.13-4.78,21.52-18.27,31.66s-19.14,12.45-19.14,12.45,3.43-11-12.18-22.82-37.05-20.9-44.28-16.86a93.31,93.31,0,0,1,14.67-12.64c9.15-6.45,19.34-15,19.34-15Z" style="fill:#BA68C8"></path><path d="M214.24,380.53a39.25,39.25,0,0,1,7.56,20.57c.71,12.13-4.78,21.52-18.27,31.66s-19.14,12.45-19.14,12.45,3.43-11-12.18-22.82-37.05-20.9-44.28-16.86a93.31,93.31,0,0,1,14.67-12.64c9.15-6.45,19.34-15,19.34-15Z" style="opacity:0.30000000000000004"></path><path d="M140.59,365c-.79-6.55-.61-11.15-.28-12,1.95-4.64,3.54-6.09,6.35-10.75a290.4,290.4,0,0,1,18-26.22c3.8-4.66,10.16-5.09,15.43-4.18,3,.52-2.44,11.61-5.44,20.31l-17.9,25c-.53.73-1.69,2.17-1.6,3.06l-.77,13.18-5.47,4.35S141.64,373.6,140.59,365Z" style="fill:#b16668"></path><path d="M141.87,367.21l2.94,1,4.51-2.31,2.93-1.37,1.43-1.64-.35-5.12a4.86,4.86,0,0,1,0-.54l-11,1.31c-.91-.17-1.72.19-2.2,1.55.09,1.46.24,3.1.45,4.9.09.41.2.81.31,1.21A9,9,0,0,0,141.87,367.21Z" style="fill:#9a4a4d"></path><path d="M197.63,313.14h0c18.09,2.16,13.65,5.83,16.62,12.11a20.29,20.29,0,0,1,.56,15.31l-7.2,24,6.63,16c-20.78,11.6-46.06,7.72-52.31-.74-.27-1.8,1.67-21.38,2.66-30.55-4.87-4.11-6.16-12.7-4.21-17.16,4.68-10.64,14.35-20.72,19.28-20.32Z" style="fill:#BA68C8"></path><path d="M214.24,380.53c-.77.42-1.54.82-2.32,1.21-13.91,6.91-29.4,7.26-39.71,4.17a60.34,60.34,0,0,0,21-.91,12.55,12.55,0,0,0,9.36-15.3,6.55,6.55,0,0,0-.21-.66,5.23,5.23,0,0,0-2-2.13,2.67,2.67,0,0,1-1.32-2,2.94,2.94,0,0,1,.58-1.5c2.06-3.31,4.46-6.53,5.35-10.32,1.67-7.1,2-14.24-.17-21.34l-.07-.21,8.84-5,1.55,1.09a19.48,19.48,0,0,1,.84,4.81c0,.42,0,.84,0,1.26,0,.2,0,.4,0,.59,0,.35,0,.7-.07,1.05s-.06.56-.1.84-.08.59-.13.88-.13.72-.21,1.07-.1.46-.16.68c-.15.59-.32,1.17-.52,1.74l-7.2,24Z" style="opacity:0.1"></path><path d="M185.32,256.53c-13.29-3-25.32,4.75-23.69,18.07,1.1,9,10.27,30.31,22.89,30.31l8.34,2.15c9.82,0,16.24-8.06,19-23.28C214.71,267.75,199.86,259.81,185.32,256.53Z" style="fill:#263238"></path><path d="M169.6,269.26c-1.32.69-5.38,5.25-4.3,20.44.89,12.52,4.7,15.8,6.74,16.7s6,.35,9.82-.29v5.75s-5.29,6.15-5,9.6,7.31,3.72,12.6.9a21.9,21.9,0,0,0,8.92-9.1l-.1-15.48s1.24,1.38,4.42-.48c4.39-2.55,5.55-9,3.09-11.46s-9.21,3.18-9.21,3.18c-.24-2.45-1.58-4.93-7.3-7.4C184,279.33,173,278.28,169.6,269.26Z" style="fill:#b16668"></path><path d="M166.24,283.14l3.51-1.67a1.86,1.86,0,0,0-2.53-1A2,2,0,0,0,166.24,283.14Z" style="fill:#263238"></path><path d="M180.52,281.68l3.48,2.2a2,2,0,0,0-.57-2.81A2.16,2.16,0,0,0,180.52,281.68Z" style="fill:#263238"></path><path d="M197.77,284.09l-.21,7.68a3.73,3.73,0,0,1-3.82-3.82A4,4,0,0,1,197.77,284.09Z" style="fill:#263238"></path><path d="M204.33,267.31l.64-7.66a3.72,3.72,0,0,1,3.59,4A4,4,0,0,1,204.33,267.31Z" style="fill:#263238"></path><path d="M205.83,266.27l6.92-3.34a3.73,3.73,0,0,1-1.64,5.15A4,4,0,0,1,205.83,266.27Z" style="fill:#263238"></path><path d="M179.16,287.21a1.7,1.7,0,0,0,1.58,1.81,1.72,1.72,0,0,0,1.76-1.66,1.7,1.7,0,0,0-1.58-1.81A1.71,1.71,0,0,0,179.16,287.21Z" style="fill:#263238"></path><path d="M182.21,297.33l-3.55,1.76a1.94,1.94,0,0,0,2.63,1A2.07,2.07,0,0,0,182.21,297.33Z" style="fill:#9a4a4d"></path><path d="M167.32,287a1.58,1.58,0,1,0,1.66-1.56A1.61,1.61,0,0,0,167.32,287Z" style="fill:#263238"></path><polygon points="174.98 285.84 175.55 295.33 170.43 294.22 174.98 285.84" style="fill:#9a4a4d"></polygon><path d="M181.86,306.11c4-.53,12.34-2.92,13.64-6.2a8.51,8.51,0,0,1-2.91,4.19c-2.49,2.13-10.73,4.52-10.73,4.52Z" style="fill:#9a4a4d"></path><path d="M140.53,351.32h0l1.29-1.11v0a1.46,1.46,0,0,1,1.31-.15L157,353.86a5.12,5.12,0,0,1,3.12,2.92l10,28.83a1.3,1.3,0,0,1-.18,1.47h0l-1.32,1.14h0a1.44,1.44,0,0,1-1.33.15l-13.89-3.77a5.15,5.15,0,0,1-3.12-2.92c-2-5.67-8-23.16-10-28.83C140,352.13,140.15,351.59,140.53,351.32Z" style="fill:#455a64"></path><path d="M168.82,386.71l-10-28.83A5.12,5.12,0,0,0,155.7,355l-13.88-3.78c-1.29-.35-2,.39-1.54,1.65,2,5.67,8,23.16,10,28.83a5.15,5.15,0,0,0,3.12,2.92l13.89,3.77C168.57,388.71,169.25,388,168.82,386.71Z" style="fill:#263238"></path><path d="M157.22,355.77a5.07,5.07,0,0,1,1.61,2.12l10,28.82a1.36,1.36,0,0,1-.14,1.45l1.25-1.07h0a1.34,1.34,0,0,0,.19-1.47l-10-28.84a4.82,4.82,0,0,0-1.49-2Z" style="fill:#37474f"></path><path d="M144,363.7c.81,2.43,3.83,4.17,8.57,5.29s7.36,6.15,6.6,7.68-8.42,3-11.49,2.52-6.14-4.87-7.07-6.24-.84-10.47-.22-12c.89-2.18,2.18-1.39,2.18-1.39Z" style="fill:#b16668"></path><path d="M159.21,376.67c.76-1.53-1.86-6.56-6.6-7.68a25,25,0,0,1-4-1.29h0a17.56,17.56,0,0,0,0,6.86c.58,2.51-.41,2.93-2.51,2.4s-5.4-4-5.4-4c.93,1.37,4,5.8,7.07,6.24S158.44,378.2,159.21,376.67Z" style="fill:#9a4a4d"></path><path d="M208.76,356.62l1.1,11.72,13.59,13.14c4.31-.85,4.43-4.76,4.34-6.06s-1-15.34-2.26-25.66-1.74-25.2-5.27-29.57-14.95-5.75-14.95-5.75-6.87,9.85.52,22.16Z" style="fill:#b16668"></path><path d="M209.69,366.55s-25.31,2.89-30.18,2.2-7.64-1-10.88-3.23c-3.5-2.39-5.75-4.53-6.77-3.67l2.45,7c.28.83-2.2,1.37-7.18.22s-7-4-8.26-2.35c-.7.93-.56,5.27,1.56,8.35a15.31,15.31,0,0,0,9.08,6.38c8.53,2.22,14.77-.64,21.59-.35s32.64,2.91,42.35.35c0,0,6.83-8.84,1.05-13.44C220.05,364.49,209.69,366.55,209.69,366.55Z" style="fill:#b16668"></path><path d="M209.49,364.4l.2,2.15a21.17,21.17,0,0,1,10,2.8S216.86,365.62,209.49,364.4Z" style="fill:#9a4a4d"></path></g></g></svg>
